<svg xmlns="http://www.w3.org/2000/svg" viewBox="0 0 512 512">
  <rect width="512" height="512" rx="112" fill="#2d4a47"/>
  <ellipse cx="256" cy="430" rx="200" ry="14" fill="#1a3a36" opacity="0.5"/>
  <path d="M70 360 Q170 348 256 360 T442 360" stroke="#9ed1bb" stroke-width="4" fill="none" opacity="0.5"/>
  <path d="M100 330 Q190 320 256 330 T420 330" stroke="#9ed1bb" stroke-width="3" fill="none" opacity="0.4"/>
  <ellipse cx="256" cy="320" rx="160" ry="60" fill="#8a6240"/>
  <ellipse cx="256" cy="260" rx="135" ry="110" fill="#a87a52"/>
  <ellipse cx="190" cy="200" rx="22" ry="27" fill="#8a6240"/>
  <ellipse cx="322" cy="200" rx="22" ry="27" fill="#8a6240"/>
  <ellipse cx="190" cy="200" rx="11" ry="15" fill="#d4a584"/>
  <ellipse cx="322" cy="200" rx="11" ry="15" fill="#d4a584"/>
  <circle cx="208" cy="244" r="13" fill="#1a0f08"/>
  <circle cx="304" cy="244" r="13" fill="#1a0f08"/>
  <circle cx="212" cy="240" r="4" fill="#fff"/>
  <circle cx="308" cy="240" r="4" fill="#fff"/>
  <ellipse cx="256" cy="280" rx="16" ry="11" fill="#1a0f08"/>
  <path d="M222 300 Q256 314 290 300" stroke="#1a0f08" stroke-width="7" fill="none" stroke-linecap="round"/>
  <ellipse cx="170" cy="282" rx="16" ry="10" fill="#e8a8a0" opacity="0.55"/>
  <ellipse cx="342" cy="282" rx="16" ry="10" fill="#e8a8a0" opacity="0.55"/>
</svg>
